<svg width="24.000000" height="24.000000" viewBox="0 0 24 24" fill="none" xmlns="http://www.w3.org/2000/svg" xmlns:xlink="http://www.w3.org/1999/xlink">
	<desc>
			Created with Pixso.
	</desc>
	<defs/>
	<path id="Vector" d="M23.72 22.39L16.95 15.62C20.03 11.87 19.82 6.3 16.32 2.79C12.59 -0.94 6.52 -0.94 2.79 2.79C-0.94 6.52 -0.94 12.59 2.79 16.32C6.3 19.82 11.87 20.04 15.62 16.95L22.39 23.72C22.76 24.09 23.35 24.09 23.72 23.72C24.09 23.35 24.09 22.76 23.72 22.39ZM14.99 14.99C11.99 17.99 7.12 17.99 4.12 14.99C1.12 11.99 1.12 7.12 4.12 4.12C7.12 1.12 11.99 1.12 14.99 4.12C17.99 7.12 17.99 11.99 14.99 14.99Z" fill="#F2F2F2" fill-opacity="1.000000" fill-rule="nonzero"/>
	<path id="Vector" d="M14.15 8.62L10.49 8.62L10.49 4.96C10.49 4.45 10.07 4.03 9.55 4.03C9.04 4.03 8.62 4.45 8.62 4.96L8.62 8.62L4.96 8.62C4.45 8.62 4.03 9.04 4.03 9.56C4.03 10.07 4.45 10.49 4.96 10.49L8.62 10.49L8.62 14.15C8.62 14.66 9.04 15.08 9.55 15.08C10.07 15.08 10.49 14.66 10.49 14.15L10.49 10.49L14.15 10.49C14.66 10.49 15.08 10.07 15.08 9.56C15.08 9.04 14.66 8.62 14.15 8.62Z" fill="#F2F2F2" fill-opacity="1.000000" fill-rule="nonzero"/>
</svg>
