<svg width="127.195312" height="15.308594" viewBox="0 0 127.195 15.3086" fill="none" xmlns="http://www.w3.org/2000/svg" xmlns:xlink="http://www.w3.org/1999/xlink">
	<desc>
			Created with Pixso.
	</desc>
	<defs/>
	<path id="UK. FASHION" d="M68.7 15.26Q69.28 15.3 69.86 15.3Q72.71 15.3 74.15 14.19Q74.7 13.76 75.04 13.21Q75.59 12.31 75.59 11.08Q75.59 9.93 75.19 9.15Q74.8 8.36 73.96 7.78Q73.11 7.2 71.62 6.57Q70.34 6.04 69.77 5.77Q69.21 5.5 68.89 5.14Q68.82 5.06 68.76 4.96Q68.58 4.65 68.58 4.24Q68.58 3.89 68.72 3.61Q68.89 3.29 69.25 3.08Q69.92 2.67 71.1 2.67Q72.95 2.67 74.8 3.59L74.8 0.86Q73.83 0.42 72.82 0.2Q71.81 -0.01 70.51 -0.01Q68.92 -0.01 67.7 0.52Q66.61 0.99 65.96 1.8Q65.88 1.9 65.81 2Q65.59 2.32 65.44 2.67Q65.14 3.37 65.14 4.2Q65.14 5.26 65.58 6.08Q65.77 6.45 66.06 6.77Q66.98 7.81 69.04 8.65Q70.28 9.15 70.88 9.46Q71.48 9.76 71.79 10.14Q71.88 10.25 71.94 10.37Q72.1 10.68 72.1 11.06Q72.1 11.44 71.95 11.74Q71.79 12.03 71.47 12.24Q70.85 12.66 69.63 12.66Q68.54 12.66 67.34 12.39Q67.01 12.31 66.69 12.22Q65.84 11.97 65.03 11.57L65.03 14.38Q65.87 14.8 67.19 15.05Q67.94 15.19 68.7 15.26ZM101.85 14.66Q103.38 15.3 105.18 15.3Q107.06 15.3 108.63 14.6Q108.9 14.48 109.16 14.34Q110.06 13.85 110.76 13.17Q111.45 12.5 111.97 11.64Q112.09 11.43 112.2 11.21Q113 9.63 113 7.66Q113 5.73 112.24 4.17Q112.11 3.92 111.97 3.67Q111.44 2.78 110.72 2.09Q110.03 1.44 109.16 0.96Q108.88 0.81 108.6 0.69Q107.04 -0.01 105.18 -0.01Q103.4 -0.01 101.88 0.63Q101.52 0.78 101.18 0.96Q100.24 1.47 99.52 2.18Q98.85 2.83 98.35 3.67Q98.21 3.91 98.1 4.15Q97.33 5.72 97.33 7.66Q97.33 9.65 98.13 11.23Q98.23 11.44 98.35 11.64Q98.83 12.45 99.47 13.09Q100.22 13.82 101.18 14.34Q101.51 14.52 101.85 14.66ZM1.8 13.78Q3.42 15.3 6.48 15.3Q9.54 15.3 11.15 13.78Q11.23 13.7 11.31 13.62Q11.58 13.34 11.8 13.03Q12.93 11.45 12.93 9.07L12.93 0.31L9.74 0.31L9.74 9.11Q9.74 10.55 9.02 11.38Q8.95 11.47 8.86 11.55Q8.75 11.66 8.62 11.75Q7.79 12.39 6.48 12.39Q5.13 12.39 4.28 11.73Q4.17 11.64 4.07 11.55Q3.97 11.46 3.89 11.36Q3.18 10.53 3.18 9.11L3.18 0.31L0 0.31L0 9.07Q0 11.43 1.11 12.99Q1.34 13.32 1.63 13.62Q1.71 13.7 1.8 13.78ZM18.22 0.31L15.03 0.31L15.03 14.99L18.22 14.99L18.22 8.25L24.19 14.99L27.98 14.99L21.35 7.47L27.56 0.31L23.77 0.31L18.22 6.7L18.22 0.31ZM51.05 0.31L40.86 0.31L40.86 14.99L44.05 14.99L44.05 8.88L49.2 8.88L49.2 6.42L44.05 6.42L44.05 3L51.05 3L51.05 0.31ZM58.77 0.31L55.64 0.31L49.76 14.99L53.04 14.99L54.3 11.8L60.11 11.8L61.37 14.99L64.63 14.99L58.77 0.31ZM80.57 0.31L77.38 0.31L77.38 14.99L80.57 14.99L80.57 8.84L86.98 8.84L86.98 14.99L90.16 14.99L90.16 0.31L86.98 0.31L86.98 6.19L80.57 6.19L80.57 0.31ZM95.54 0.31L92.35 0.31L92.35 14.99L95.54 14.99L95.54 0.31ZM117.87 0.31L114.76 0.31L114.76 14.99L117.95 14.99L117.95 5.5L124.1 14.99L127.19 14.99L127.19 0.31L124 0.31L124 9.8L117.87 0.31ZM106.94 12.05Q106.13 12.37 105.18 12.37Q104.19 12.37 103.34 12.02Q103.09 11.92 102.85 11.79Q102.41 11.55 102.05 11.22Q101.55 10.77 101.19 10.15Q100.58 9.09 100.58 7.66Q100.58 6.28 101.17 5.23Q101.18 5.21 101.19 5.19Q101.57 4.54 102.11 4.07Q102.44 3.78 102.84 3.56Q103 3.47 103.17 3.39Q104.08 2.98 105.18 2.98Q106.2 2.98 107.07 3.35Q107.29 3.44 107.5 3.56Q107.93 3.8 108.29 4.12Q108.79 4.57 109.14 5.19Q109.74 6.25 109.74 7.66Q109.74 9.09 109.13 10.15Q108.77 10.78 108.25 11.24Q107.9 11.56 107.48 11.79Q107.22 11.94 106.94 12.05ZM57.2 3.67L59.28 9.26L55.12 9.26L57.2 3.67ZM29.98 14.87Q30.23 14.99 30.53 14.99Q30.81 14.99 31.05 14.89Q31.23 14.8 31.39 14.66Q31.55 14.5 31.64 14.3Q31.74 14.08 31.74 13.82Q31.74 13.56 31.65 13.34Q31.56 13.13 31.39 12.96Q31.21 12.77 30.99 12.68Q30.78 12.6 30.53 12.6Q30.32 12.6 30.13 12.66Q29.89 12.75 29.68 12.96Q29.52 13.12 29.43 13.33Q29.33 13.55 29.33 13.82Q29.33 14.1 29.44 14.34Q29.52 14.51 29.67 14.66Q29.82 14.79 29.98 14.87Z" fill="#FFFFFF" fill-opacity="1.000000" fill-rule="evenodd"/>
</svg>
