<svg width="132.000000" height="32.000000" viewBox="0 0 132 32" fill="none" xmlns="http://www.w3.org/2000/svg" xmlns:xlink="http://www.w3.org/1999/xlink">
	<desc>
			Created with Pixso.
	</desc>
	<defs/>
	<path id="UK. FASHION" d="M71.69 23.26Q72.27 23.31 72.85 23.31Q75.7 23.31 77.14 22.2Q77.69 21.77 78.03 21.21Q78.58 20.32 78.58 19.09Q78.58 17.93 78.18 17.15Q77.79 16.36 76.94 15.78Q76.1 15.2 74.61 14.58Q73.33 14.05 72.76 13.78Q72.2 13.51 71.88 13.15Q71.8 13.06 71.75 12.96Q71.57 12.66 71.57 12.24Q71.57 11.89 71.71 11.61Q71.88 11.3 72.24 11.08Q72.91 10.67 74.09 10.67Q75.93 10.67 77.79 11.59L77.79 8.86Q76.82 8.42 75.81 8.21Q74.8 8 73.5 8Q71.9 8 70.68 8.53Q69.6 8.99 68.95 9.8Q68.87 9.9 68.8 10.01Q68.57 10.33 68.43 10.67Q68.13 11.37 68.13 12.2Q68.13 13.26 68.57 14.08Q68.76 14.45 69.05 14.78Q69.97 15.81 72.03 16.65Q73.27 17.16 73.87 17.46Q74.47 17.77 74.78 18.14Q74.87 18.25 74.93 18.37Q75.09 18.68 75.09 19.07Q75.09 19.45 74.94 19.74Q74.78 20.04 74.46 20.25Q73.84 20.66 72.62 20.66Q71.53 20.66 70.33 20.39Q70 20.32 69.68 20.22Q68.83 19.97 68.02 19.57L68.02 22.38Q68.86 22.81 70.18 23.06Q70.93 23.2 71.69 23.26ZM104.84 22.66Q106.37 23.31 108.17 23.31Q110.05 23.31 111.62 22.61Q111.89 22.49 112.15 22.34Q113.05 21.86 113.75 21.17Q114.44 20.51 114.95 19.65Q115.08 19.43 115.19 19.21Q115.99 17.64 115.99 15.66Q115.99 13.74 115.23 12.18Q115.1 11.92 114.95 11.67Q114.43 10.78 113.71 10.1Q113.02 9.44 112.15 8.97Q111.87 8.82 111.59 8.69Q110.03 8 108.17 8Q106.39 8 104.87 8.63Q104.51 8.78 104.17 8.97Q103.23 9.47 102.51 10.18Q101.84 10.84 101.34 11.67Q101.2 11.91 101.08 12.15Q100.32 13.72 100.32 15.66Q100.32 17.65 101.12 19.24Q101.22 19.44 101.34 19.65Q101.82 20.45 102.46 21.09Q103.21 21.83 104.17 22.34Q104.5 22.52 104.84 22.66ZM4.78 21.78Q6.41 23.31 9.47 23.31Q12.53 23.31 14.14 21.78Q14.22 21.7 14.3 21.62Q14.57 21.34 14.79 21.03Q15.92 19.46 15.92 17.07L15.92 8.32L12.73 8.32L12.73 17.11Q12.73 18.56 12.01 19.38Q11.94 19.47 11.85 19.55Q11.74 19.66 11.61 19.76Q10.78 20.39 9.47 20.39Q8.12 20.39 7.27 19.74Q7.16 19.65 7.06 19.55Q6.96 19.46 6.88 19.36Q6.17 18.54 6.17 17.11L6.17 8.32L2.98 8.32L2.98 17.07Q2.98 19.43 4.1 20.99Q4.33 21.32 4.62 21.62Q4.7 21.7 4.78 21.78ZM21.21 8.32L18.02 8.32L18.02 23L21.21 23L21.21 16.25L27.17 23L30.97 23L24.34 15.48L30.55 8.32L26.75 8.32L21.21 14.7L21.21 8.32ZM54.04 8.32L43.85 8.32L43.85 23L47.04 23L47.04 16.88L52.18 16.88L52.18 14.43L47.04 14.43L47.04 11L54.04 11L54.04 8.32ZM61.76 8.32L58.63 8.32L52.75 23L56.03 23L57.29 19.8L63.1 19.8L64.36 23L67.62 23L61.76 8.32ZM83.56 8.32L80.37 8.32L80.37 23L83.56 23L83.56 16.84L89.96 16.84L89.96 23L93.15 23L93.15 8.32L89.96 8.32L89.96 14.2L83.56 14.2L83.56 8.32ZM98.53 8.32L95.34 8.32L95.34 23L98.53 23L98.53 8.32ZM120.85 8.32L117.75 8.32L117.75 23L120.94 23L120.94 13.51L127.09 23L130.18 23L130.18 8.32L126.99 8.32L126.99 17.81L120.85 8.32ZM109.93 20.05Q109.11 20.37 108.17 20.37Q107.18 20.37 106.33 20.03Q106.08 19.93 105.84 19.8Q105.4 19.55 105.04 19.23Q104.54 18.77 104.18 18.16Q103.57 17.09 103.57 15.66Q103.57 14.28 104.16 13.23Q104.17 13.21 104.18 13.2Q104.56 12.54 105.09 12.08Q105.43 11.78 105.83 11.56Q105.99 11.47 106.16 11.39Q107.07 10.98 108.17 10.98Q109.19 10.98 110.06 11.35Q110.28 11.44 110.49 11.56Q110.92 11.8 111.28 12.12Q111.78 12.58 112.13 13.2Q112.73 14.26 112.73 15.66Q112.73 17.09 112.12 18.16Q111.76 18.79 111.24 19.25Q110.89 19.56 110.47 19.8Q110.21 19.94 109.93 20.05ZM60.19 11.67L62.27 17.26L58.11 17.26L60.19 11.67ZM32.97 22.88Q33.22 23 33.52 23Q33.8 23 34.04 22.89Q34.22 22.81 34.37 22.66Q34.54 22.5 34.63 22.31Q34.73 22.09 34.73 21.82Q34.73 21.56 34.64 21.34Q34.55 21.13 34.37 20.96Q34.2 20.78 33.98 20.69Q33.77 20.6 33.52 20.6Q33.31 20.6 33.12 20.67Q32.88 20.76 32.67 20.96Q32.5 21.13 32.42 21.33Q32.32 21.55 32.32 21.82Q32.32 22.11 32.43 22.34Q32.51 22.52 32.66 22.66Q32.8 22.8 32.97 22.88Z" fill="#FFFFFF" fill-opacity="1.000000" fill-rule="evenodd"/>
	<line id="Line 13" x1="1.000000" y1="31.000000" x2="37.000000" y2="31.000000" stroke="#FFFFFF" stroke-opacity="1.000000" stroke-width="2.000000"/>
	<line id="Line 14" x1="42.000000" y1="31.000000" x2="62.000000" y2="31.000000" stroke="#FFFFFF" stroke-opacity="1.000000" stroke-width="2.000000"/>
</svg>
